# xmcd CD database file
#
# Track frame offsets:
#	150
#	12293
#	26674
#	37636
#	48949
#	60725
#	72745
#	86050
#	100389
#	114797
#	129181
#	143139
#	158406
#	170708
#	187050
#	202395
#	232376
#	248454
#	262037
#	274285
#
# Disc length: 3835 seconds
#
# Revision: 2
# Processed by: cddbd v1.5.2PL0 Copyright (c) Steve Scherf et al.
# Submitted via: CDex 1.70beta2
#
DISCID=210ef914
DTITLE=Various Artist - 青春歌年鑑　戦前編 1　Disc 1
DYEAR=1935
DGENRE=歌謡曲
TTITLE0=東京行進曲 - 佐藤千夜子
TTITLE1=波浮の港 - 佐藤千夜子
TTITLE2=出船の港 - 藤原義江
TTITLE3=鉾をおさめて - 藤原義江
TTITLE4=青空 - 二村定一
TTITLE5=アラビアの唄 - 二村定一
TTITLE6=君恋し - 二村定一
TTITLE7=浪花小唄 (道頓堀夜景) - 二村定一
TTITLE8=黒い瞳よ今いづこ - 天野喜久代
TTITLE9=沓掛小唄 - 川崎　豊　曽我　直子
TTITLE10=蒲田行進曲 - 川崎　豊　曽我　直子
TTITLE11=愛して頂戴 - 佐藤千夜子
TTITLE12=モン巴里 - 宝塚少女歌劇　花組スター連
TTITLE13=すみれの花咲く頃 - 宝塚少女歌劇　月組生徒
TTITLE14=麗人の唄 - 河原喜久恵
TTITLE15=祇園小唄 - 河原喜久恵
TTITLE16=唐人お吉小唄(明烏篇) - 藤本二三吉
TTITLE17=この太陽 - 佐藤千夜子
TTITLE18=女給の唄 - 羽衣歌子
TTITLE19=侍ニッポン - 徳山　璉
EXTD=YEAR: 1935
EXTT0=
EXTT1=
EXTT2=
EXTT3=
EXTT4=
EXTT5=
EXTT6=
EXTT7=
EXTT8=
EXTT9=
EXTT10=
EXTT11=
EXTT12=
EXTT13=
EXTT14=
EXTT15=
EXTT16=
EXTT17=
EXTT18=
EXTT19=
PLAYORDER=
